<svg width="112" height="73" viewBox="0 0 112 73" fill="none" xmlns="http://www.w3.org/2000/svg" class="logo">
<path d="M79.25 23L92.25 23" stroke="#000" stroke-width="7" stroke-linecap="round"/>
<path d="M79.25 36L102 36" stroke="#000" stroke-width="7" stroke-linecap="round"/>
<path d="M79.25 49H92.25" stroke="#000" stroke-width="7" stroke-linecap="round"/>
<path d="M20.75 23L33.75 23" stroke="#000" stroke-width="7" stroke-linecap="round"/>
<path d="M11 36L33.75 36" stroke="#000" stroke-width="7" stroke-linecap="round"/>
<path d="M20.75 49H33.75" stroke="#000" stroke-width="7" stroke-linecap="round"/>
<path d="M56 10.2887C56.3094 10.11 56.6906 10.11 57 10.2887L78.5167 22.7113C78.8261 22.89 79.0167 23.2201 79.0167 23.5774V48.4226C79.0167 48.7799 78.8261 49.11 78.5167 49.2887L57 61.7113C56.6906 61.89 56.3094 61.89 56 61.7113L34.4833 49.2887C34.1739 49.11 33.9833 48.7799 33.9833 48.4226V23.5774C33.9833 23.2201 34.1739 22.89 34.4833 22.7113L56 10.2887Z" stroke="#000" stroke-width="7"/>
</svg>
